<svg width="420" height="150" viewBox="0 0 420 150" fill="none" xmlns="http://www.w3.org/2000/svg">
  <rect width="420" height="150" rx="24" fill="#07111F"/>
  <path d="M96 40C130 8 180 8 214 40C232 57 257 65 281 65C255 71 226 67 204 54C175 37 136 39 109 60C95 72 76 78 58 76C72 67 84 55 96 40Z" fill="#143E8F"/>
  <path d="M183 53C203 34 235 32 256 48C269 57 285 61 300 60C286 66 270 70 253 69C232 68 210 73 193 87C180 98 163 104 146 103C162 92 172 78 183 53Z" fill="#D5A74F"/>
  <text x="38" y="108" fill="#F5F7FB" font-size="38" font-family="Poppins, Arial, sans-serif">code.</text>
  <text x="178" y="108" fill="#D5A74F" font-size="38" font-family="Poppins, Arial, sans-serif">Wave</text>
  <text x="39" y="130" fill="#D9DEE8" font-size="10" letter-spacing="3" font-family="Poppins, Arial, sans-serif">CRIAMOS SITES. CONECTAMOS IDEIAS.</text>
</svg>
